<svg width="75" height="34" viewBox="0 0 75 34" fill="none" xmlns="http://www.w3.org/2000/svg">
<path d="M0.193255 12.4249C0.193164 12.0921 0.325526 11.7726 0.56203 11.5345C0.798535 11.2965 1.1204 11.1589 1.45878 11.1511H8.67027C13.7826 11.1511 17.1473 13.827 17.1473 18.211V18.2703C17.1473 23.069 13.0695 25.5573 8.24843 25.5573H2.75444V32.2913C2.77019 32.466 2.74878 32.6421 2.69159 32.8082C2.63439 32.9743 2.54265 33.1269 2.4222 33.2563C2.30175 33.3856 2.15523 33.489 1.99196 33.5596C1.82869 33.6303 1.65224 33.6668 1.47384 33.6668C1.29544 33.6668 1.119 33.6303 0.955733 33.5596C0.792463 33.489 0.645943 33.3856 0.525494 33.2563C0.405045 33.1269 0.313297 32.9743 0.256098 32.8082C0.1989 32.6421 0.177502 32.466 0.193255 32.2913V12.4249ZM8.34887 23.2863C12.0952 23.2863 14.556 21.3115 14.556 18.3493V18.29C14.556 15.1106 12.1354 13.4616 8.52966 13.4616H2.80466V23.2468L8.34887 23.2863Z" fill="white"/>
<path d="M22.0187 12.2669C22.0029 12.0922 22.0243 11.9162 22.0815 11.7501C22.1387 11.5839 22.2305 11.4313 22.3509 11.302C22.4714 11.1726 22.6179 11.0693 22.7812 10.9986C22.9444 10.9279 23.1209 10.8914 23.2993 10.8914C23.4777 10.8914 23.6541 10.9279 23.8174 10.9986C23.9807 11.0693 24.1272 11.1726 24.2476 11.302C24.3681 11.4313 24.4598 11.5839 24.517 11.7501C24.5742 11.9162 24.5956 12.0922 24.5799 12.2669V32.2913C24.5956 32.466 24.5742 32.642 24.517 32.8082C24.4598 32.9743 24.3681 33.1269 24.2476 33.2563C24.1272 33.3856 23.9807 33.489 23.8174 33.5596C23.6541 33.6303 23.4777 33.6668 23.2993 33.6668C23.1209 33.6668 22.9444 33.6303 22.7812 33.5596C22.6179 33.489 22.4714 33.3856 22.3509 33.2563C22.2305 33.1269 22.1387 32.9743 22.0815 32.8082C22.0243 32.642 22.0029 32.466 22.0187 32.2913V12.2669Z" fill="white"/>
<path d="M31.1987 12.2965C31.2065 11.9699 31.3426 11.6588 31.5786 11.4287C31.8145 11.1986 32.1319 11.0673 32.4643 11.0623H32.8158C33.0768 11.0675 33.3322 11.1372 33.5586 11.2649C33.785 11.3925 33.9751 11.5741 34.1115 11.7929L47.8615 29.0231V12.2373C47.8615 11.9125 47.9927 11.6011 48.2263 11.3715C48.4599 11.1419 48.7766 11.0129 49.1069 11.0129C49.4373 11.0129 49.754 11.1419 49.9876 11.3715C50.2212 11.6011 50.3524 11.9125 50.3524 12.2373V32.3308C50.3579 32.4836 50.3316 32.6359 50.2753 32.7784C50.2189 32.9209 50.1336 33.0506 50.0246 33.1596C49.9156 33.2687 49.7851 33.3547 49.6412 33.4125C49.4972 33.4704 49.3428 33.4987 49.1873 33.496H49.0567C48.79 33.4779 48.5313 33.3989 48.3011 33.2652C48.0709 33.1314 47.8757 32.9468 47.7309 32.7258L33.6695 15.0908V32.3308C33.6673 32.6491 33.5411 32.9544 33.317 33.184C33.0928 33.4135 32.7876 33.5499 32.4643 33.5651C32.1357 33.5599 31.8225 33.4272 31.593 33.1961C31.3635 32.9649 31.2362 32.6539 31.2389 32.3308V12.2965H31.1987Z" fill="white"/>
<path d="M56.7401 12.2669C56.7244 12.0922 56.7458 11.9162 56.803 11.7501C56.8602 11.5839 56.9519 11.4313 57.0724 11.302C57.1928 11.1726 57.3393 11.0693 57.5026 10.9986C57.6659 10.9279 57.8423 10.8914 58.0207 10.8914C58.1991 10.8914 58.3756 10.9279 58.5388 10.9986C58.7021 11.0693 58.8486 11.1726 58.9691 11.302C59.0895 11.4313 59.1813 11.5839 59.2385 11.7501C59.2957 11.9162 59.3171 12.0922 59.3013 12.2669V24.4415L72.1976 11.4375C72.4622 11.1684 72.8217 11.0094 73.202 10.9931C73.5308 11.0057 73.8421 11.1418 74.0719 11.3732C74.3017 11.6046 74.4325 11.9139 74.4374 12.2373C74.4303 12.4054 74.3894 12.5706 74.317 12.7231C74.2446 12.8756 74.1421 13.0125 74.0156 13.1259L65.9805 20.9461L74.6483 31.3731C74.8749 31.631 74.9996 31.9604 74.9999 32.3012C74.996 32.472 74.9577 32.6402 74.8874 32.7964C74.817 32.9525 74.7158 33.0934 74.5898 33.2109C74.4637 33.3284 74.3152 33.4202 74.1529 33.481C73.9906 33.5418 73.8176 33.5703 73.644 33.5651C73.4418 33.557 73.2447 33.5006 73.0697 33.4008C72.8947 33.3011 72.7471 33.1609 72.6396 32.9924L64.1826 22.6346L59.3013 27.4333V32.2716C59.3013 32.4363 59.2683 32.5993 59.2042 32.7515C59.1401 32.9036 59.0462 33.0419 58.9277 33.1583C58.8093 33.2747 58.6686 33.3671 58.5139 33.4301C58.3591 33.4932 58.1933 33.5256 58.0257 33.5256C57.8582 33.5256 57.6924 33.4932 57.5376 33.4301C57.3828 33.3671 57.2422 33.2747 57.1238 33.1583C57.0053 33.0419 56.9114 32.9036 56.8473 32.7515C56.7832 32.5993 56.7502 32.4363 56.7502 32.2716V12.2669H56.7401Z" fill="white"/>
<path d="M26.94 3.74563C25.9748 3.74563 25.0489 3.36936 24.3655 2.69932C23.682 2.02927 23.2967 1.12014 23.2941 0.171246C23.2941 1.11923 22.911 2.02839 22.2292 2.69872C21.5473 3.36905 20.6225 3.74563 19.6582 3.74563C20.6234 3.74825 21.5482 4.12703 22.2298 4.79892C22.9113 5.47082 23.2941 6.38099 23.2941 7.32989C23.2967 6.38009 23.6817 5.46993 24.3649 4.79832C25.048 4.1267 25.9739 3.74824 26.94 3.74563Z" fill="#D22856"/>
</svg>
