<svg width="75" height="34" viewBox="0 0 75 34" fill="none" xmlns="http://www.w3.org/2000/svg">
<path d="M0.193255 12.4251C0.193164 12.0924 0.325526 11.7728 0.56203 11.5348C0.798535 11.2967 1.1204 11.1591 1.45878 11.1514H8.67027C13.7826 11.1514 17.1473 13.8272 17.1473 18.2113V18.2705C17.1473 23.0693 13.0695 25.5575 8.24843 25.5575H2.75444V32.2916C2.77019 32.4663 2.74878 32.6423 2.69159 32.8084C2.63439 32.9745 2.54265 33.1271 2.4222 33.2565C2.30175 33.3859 2.15523 33.4892 1.99196 33.5599C1.82869 33.6306 1.65224 33.6671 1.47384 33.6671C1.29544 33.6671 1.119 33.6306 0.955733 33.5599C0.792463 33.4892 0.645943 33.3859 0.525494 33.2565C0.405045 33.1271 0.313297 32.9745 0.256098 32.8084C0.1989 32.6423 0.177502 32.4663 0.193255 32.2916V12.4251ZM8.34887 23.2865C12.0952 23.2865 14.556 21.3117 14.556 18.3495V18.2903C14.556 15.1108 12.1354 13.4619 8.52966 13.4619H2.80466V23.247L8.34887 23.2865Z" fill="#283645"/>
<path d="M22.0187 12.2671C22.0029 12.0924 22.0243 11.9164 22.0815 11.7502C22.1387 11.5841 22.2305 11.4315 22.3509 11.3021C22.4714 11.1728 22.6179 11.0695 22.7812 10.9988C22.9444 10.9281 23.1209 10.8916 23.2993 10.8916C23.4777 10.8916 23.6541 10.9281 23.8174 10.9988C23.9807 11.0695 24.1272 11.1728 24.2476 11.3021C24.3681 11.4315 24.4598 11.5841 24.517 11.7502C24.5742 11.9164 24.5956 12.0924 24.5799 12.2671V32.2915C24.5956 32.4662 24.5742 32.6422 24.517 32.8084C24.4598 32.9745 24.3681 33.1271 24.2476 33.2565C24.1272 33.3858 23.9807 33.4891 23.8174 33.5598C23.6541 33.6305 23.4777 33.667 23.2993 33.667C23.1209 33.667 22.9444 33.6305 22.7812 33.5598C22.6179 33.4891 22.4714 33.3858 22.3509 33.2565C22.2305 33.1271 22.1387 32.9745 22.0815 32.8084C22.0243 32.6422 22.0029 32.4662 22.0187 32.2915V12.2671Z" fill="#283645"/>
<path d="M31.1987 12.2963C31.2065 11.9697 31.3426 11.6587 31.5786 11.4285C31.8145 11.1984 32.1319 11.0671 32.4643 11.0621H32.8158C33.0768 11.0673 33.3322 11.137 33.5586 11.2647C33.785 11.3923 33.9751 11.5739 34.1115 11.7927L47.8615 29.0229V12.2371C47.8615 11.9123 47.9927 11.6009 48.2263 11.3713C48.4599 11.1417 48.7766 11.0127 49.1069 11.0127C49.4373 11.0127 49.754 11.1417 49.9876 11.3713C50.2212 11.6009 50.3524 11.9123 50.3524 12.2371V32.3306C50.3579 32.4834 50.3316 32.6357 50.2753 32.7782C50.2189 32.9207 50.1336 33.0504 50.0246 33.1594C49.9156 33.2685 49.7851 33.3545 49.6412 33.4123C49.4972 33.4702 49.3428 33.4986 49.1873 33.4958H49.0567C48.79 33.4777 48.5313 33.3987 48.3011 33.265C48.0709 33.1313 47.8757 32.9466 47.7309 32.7256L33.6695 15.0907V32.3306C33.6673 32.6489 33.5411 32.9542 33.317 33.1838C33.0928 33.4134 32.7876 33.5498 32.4643 33.5649C32.1357 33.5597 31.8225 33.4271 31.593 33.1959C31.3635 32.9647 31.2362 32.6537 31.2389 32.3306V12.2963H31.1987Z" fill="#283645"/>
<path d="M56.7404 12.2671C56.7246 12.0924 56.746 11.9164 56.8032 11.7502C56.8604 11.5841 56.9522 11.4315 57.0726 11.3021C57.1931 11.1728 57.3396 11.0695 57.5029 10.9988C57.6661 10.9281 57.8426 10.8916 58.021 10.8916C58.1994 10.8916 58.3758 10.9281 58.5391 10.9988C58.7023 11.0695 58.8489 11.1728 58.9693 11.3021C59.0898 11.4315 59.1815 11.5841 59.2387 11.7502C59.2959 11.9164 59.3173 12.0924 59.3016 12.2671V24.4417L72.1979 11.4377C72.4625 11.1686 72.822 11.0095 73.2023 10.9933C73.531 11.0059 73.8423 11.1419 74.0721 11.3734C74.302 11.6048 74.4328 11.9141 74.4377 12.2375C74.4306 12.4056 74.3896 12.5708 74.3172 12.7233C74.2448 12.8758 74.1424 13.0127 74.0158 13.1261L65.9807 20.9463L74.6486 31.3733C74.8751 31.6312 74.9999 31.9606 75.0001 32.3014C74.9962 32.4721 74.958 32.6404 74.8876 32.7965C74.8172 32.9527 74.7161 33.0936 74.59 33.2111C74.4639 33.3286 74.3155 33.4203 74.1531 33.4811C73.9908 33.5419 73.8178 33.5705 73.6442 33.5653C73.4415 33.5598 73.2434 33.5045 73.0679 33.4045C72.8925 33.3044 72.7453 33.1629 72.6398 32.9926L64.1929 22.6348L59.3016 27.4335V32.2718C59.3016 32.4365 59.2686 32.5995 59.2045 32.7517C59.1404 32.9038 59.0464 33.0421 58.928 33.1585C58.8095 33.2749 58.6689 33.3673 58.5141 33.4303C58.3594 33.4933 58.1935 33.5258 58.026 33.5258C57.8585 33.5258 57.6926 33.4933 57.5378 33.4303C57.3831 33.3673 57.2425 33.2749 57.124 33.1585C57.0056 33.0421 56.9116 32.9038 56.8475 32.7517C56.7834 32.5995 56.7504 32.4365 56.7504 32.2718V12.2671H56.7404Z" fill="#283645"/>
<path d="M26.94 3.74577C25.9748 3.74578 25.0489 3.36951 24.3655 2.69946C23.682 2.02942 23.2967 1.12028 23.2941 0.171387C23.2941 1.11937 22.911 2.02853 22.2292 2.69886C21.5473 3.36919 20.6225 3.74577 19.6582 3.74577C20.6234 3.74839 21.5482 4.12717 22.2298 4.79906C22.9113 5.47096 23.2941 6.38114 23.2941 7.33003C23.2967 6.38023 23.6817 5.47007 24.3649 4.79846C25.048 4.12684 25.9739 3.74838 26.94 3.74577Z" fill="#D22856"/>
</svg>
